<?xml version="1.0" encoding="utf-8"?>
<!-- Generator: Adobe Illustrator 22.1.0, SVG Export Plug-In . SVG Version: 6.00 Build 0)  -->
<svg version="1.1" xmlns="http://www.w3.org/2000/svg" xmlns:xlink="http://www.w3.org/1999/xlink" x="0px" y="0px" width="213px"
	 height="64px" viewBox="0 0 213 64" style="enable-background:new 0 0 213 64;" xml:space="preserve">
<g id="Layer_1">
</g>
<g id="object">
	<g>
		<path style="fill:#002C60;" d="M100.8,19.3H88.2v12.6h12.6V19.3z M98.3,29.4h-7.6v-7.6h7.6V29.4z"/>
		<path style="fill:#002C60;" d="M121.8,38.1L121.8,38.1l-0.2,0.4l-0.2,0.3l0,0l-0.2,0.4c-0.7,1.1-1.5,2.1-2.3,3.2v15.1H83.2V9.2
			h27.2v9.9h8.5v6.3c1.1-1.8,2.3-3.6,3.6-5.3v-4.3l-8.3-10.2H79.6v55.3h42.9V37.1c-0.2,0.3-0.3,0.5-0.5,0.8L121.8,38.1z M112.5,9.2
			l6.3,7.8h-6.3V9.2z"/>
		<polygon style="fill:#B70000;" points="102.2,36.3 95.5,43 92.6,40.2 90.4,42.4 93.2,45.2 93.2,45.2 95.5,47.4 95.5,47.4 
			95.5,47.4 97.7,45.2 97.7,45.2 104.4,38.5 		"/>
		<polygon style="fill:#002C60;" points="88.2,50.5 100.8,50.5 100.8,43.1 98.3,45.7 98.3,48 96,48 95.5,48.5 95,48 90.7,48 
			90.7,43.7 89.4,42.4 90.7,41.1 91.4,40.4 92.6,39.2 93.8,40.4 97.1,40.4 99.6,37.9 88.2,37.9 		"/>
		<path style="fill:#B70000;" d="M115.3,45.2L115.3,45.2c1.8-2.2,3.5-4.4,5-6.7l-5.5-3.1c-1.2,2.5-2.2,5-3.1,7.6l0,0.1l0.1,0.1
			l3.4,1.9L115.3,45.2z"/>
		<polygon style="fill:#B70000;" points="114.7,45.7 111.4,43.8 111.4,45.2 113.5,46.4 		"/>
		<path style="fill:#B70000;" d="M111.4,47.2c0,0.2,0.2,0.3,0.3,0.2l1.1-0.6l-1.4-0.8L111.4,47.2z"/>
		<path style="fill:#B70000;" d="M130.1,21.8L130.1,21.8l-0.9-0.3l0.8-1.8c0.5-1.1,0-2.4-1-3l0,0c-1-0.6-2.4-0.3-3.1,0.7l-2.4,3.2
			c-3.1,4.2-5.8,8.8-8.1,13.5l5.7,3.2c2.5-3.8,4.6-7.7,6.5-11.8l0.6,0.2c0.2,1.3-1.3,4.2-2.8,6.9c-0.4,0.7,0.7,1.4,1.1,0.7
			c1.8-2.6,3.5-5.8,4.7-8.6C133.2,19.7,130.1,21.8,130.1,21.8z"/>
	</g>
	<g>
		<path style="fill:#B70000;" d="M60.8,28.5l-6.6-2.6l2-3.6c0,0,0.6-2.6,0.3-5.1c-0.3-2.4-1.9-6.2-2.7-6.7c-1.2-0.7-2.7-0.5-4.5,0.6
			l-3.9,7.5l-4.6,3.9l-11.6,3.2v24.8l21,3.9l7.4-5.2l2.5-11.9l2.2-5.9v-1.7L60.8,28.5z M57.6,36.5l-2.3,11.2l-5.8,4l-17.9-3.3V27.5
			l9.6-2.5h0.1l5.7-4.6l3.4-7.1l0.1,0c1.1-0.7,1.7-0.7,1.9-0.6c0.2,0.1,1.4,3,1.5,4.7c0.1,2.2-0.4,4.7-0.4,4.7c0,0-2,3.6-2,3.6
			l-1.1,1.1l9.3,3.7L57.6,36.5z"/>
		<path style="fill:#002C60;" d="M6.7,53.5l20.9-2.9v-26L6.7,22.9V53.5z M23,44.8c1.2,0,2.1,0.9,2.1,2.1c0,1.2-0.9,2.1-2.1,2.1
			c-1.2,0-2.1-0.9-2.1-2.1C20.9,45.8,21.8,44.8,23,44.8z M16.6,45.9c1.2,0,2.1,0.9,2.1,2.1c0,1.2-0.9,2.1-2.1,2.1s-2.1-0.9-2.1-2.1
			C14.4,46.9,15.4,45.9,16.6,45.9z"/>
	</g>
	<g>
		<circle style="fill:#002C60;" cx="187.8" cy="12.2" r="7.5"/>
		<polygon style="fill:#002C60;" points="186.4,20.5 187,22.1 187.4,22.1 188.2,22.1 188.6,22.1 189.2,20.5 188.2,20.5 187.4,20.5 
					"/>
		<path style="fill:#002C60;" d="M195.6,18.2l-4.6,2.9l0,0l-1.1,6.6h-0.5l-0.7-4.8h0h-1.9h0l0,0h0l-0.7,4.8h-0.5l-1.1-6.6l0,0
			l-4.9,2.3l-4,1.8l-8.3-2.4l-3.7-1.7l0,0h0l-1.1,6.6h-0.5l-0.7-4.8h0h-1.9h0l0,0h0l-0.7,4.8h-0.5l-1.1-6.6l-5.1,2.4
			c-0.3,0.2-0.6,0.4-0.7,0.8l-3.4,13.3l5.2,0v24.2h6.8V46.8h1.1v14.9h6.8V37.6l5.2,0L171,30l3.7,2.1l6.1-1.8l-0.3,7.3v24.2h6.8V46.8
			h1.1v14.9h6.8V37.6V27.2l3.5-2.2l7.4-12.7l-2.7-7L195.6,18.2z"/>
		<circle style="fill:#002C60;" cx="160.4" cy="12.2" r="7.5"/>
		<polygon style="fill:#002C60;" points="159,20.5 159.6,22.1 160,22.1 160.9,22.1 161.3,22.1 161.9,20.5 160.9,20.5 160,20.5 		"/>
	</g>
</g>
</svg>
