<?xml version="1.0" encoding="utf-8"?>
<!-- Generator: Adobe Illustrator 22.1.0, SVG Export Plug-In . SVG Version: 6.00 Build 0)  -->
<svg version="1.1" id="Layer_1" xmlns="http://www.w3.org/2000/svg" xmlns:xlink="http://www.w3.org/1999/xlink" x="0px" y="0px"
	 width="213px" height="64px" viewBox="0 0 213 64" style="enable-background:new 0 0 213 64;" xml:space="preserve">
<g>
	<g>
		<g>
			<path style="fill:#1E1E1E;" d="M155.8,63c0,0-0.1,0-0.1,0c-1.5,0-2.9-0.7-4-1.7c-2.3-2.3-2.3-5.9-0.2-8L161.8,43
				c0.2-0.2,0.3-0.5,0.1-0.8c-3.1-5.1-4.5-11.2-3.8-17.2c0.7-6.2,3.4-11.7,7.7-16.1c5.1-5.1,11.9-7.9,19.2-7.9
				c7.2,0,14,2.8,19.2,7.9c5.1,5.1,7.9,11.9,7.9,19.2c0,7.2-2.8,14-7.9,19.2c-5.1,5.1-11.9,7.9-19.2,7.9c-5,0-9.9-1.4-14.2-4
				c-0.1-0.1-0.2-0.1-0.3-0.1c-0.2,0-0.3,0.1-0.5,0.2l-10.3,10.3C158.7,62.4,157.3,63,155.8,63L155.8,63z M158,50.8
				c-0.2,0-0.3,0.1-0.5,0.2l-4.2,4.2c-1.1,1.1-1.1,3,0.2,4.3c0.6,0.6,1.4,0.9,2.2,1l0,0c0.8,0,1.5-0.3,2-0.8l4.2-4.2
				c0.1-0.1,0.2-0.3,0.2-0.5c0-0.2-0.1-0.3-0.2-0.5l-3.5-3.5C158.3,50.8,158.2,50.8,158,50.8z M163.6,45.1c-0.2,0-0.3,0.1-0.5,0.2
				l-2.8,2.8c-0.3,0.3-0.3,0.7,0,0.9l3.5,3.5c0.1,0.1,0.3,0.2,0.5,0.2s0.3-0.1,0.5-0.2l2.8-2.8c0.1-0.1,0.2-0.3,0.2-0.5
				c0-0.2-0.1-0.4-0.2-0.5c-0.6-0.5-1.2-1.1-1.8-1.6c-0.6-0.6-1.1-1.1-1.6-1.8C164,45.2,163.9,45.1,163.6,45.1
				C163.7,45.1,163.7,45.1,163.6,45.1z M184.9,3.6c-6.5,0-12.7,2.5-17.3,7.1c-8.1,8.1-9.4,20.9-3.2,30.5l0.5,0.7
				c0.4,0.6,0.8,1.2,1.3,1.7c0.4,0.5,0.9,1,1.4,1.6c0.5,0.5,1.1,1,1.6,1.4c0.6,0.5,1.1,0.9,1.7,1.3l0.7,0.5c4,2.6,8.6,3.9,13.3,3.9
				c6.5,0,12.7-2.5,17.3-7.1c4.6-4.6,7.2-10.7,7.2-17.3c0-6.5-2.5-12.7-7.2-17.3C197.6,6.1,191.4,3.6,184.9,3.6z"/>
		</g>
	</g>
	<g>
		<g>
			<path style="fill:#1E1E1E;" d="M184.8,26.2c-3.3,0-5.9-3.8-5.9-8.6c0-4.3,2.2-6.8,5.9-6.8c3.8,0,5.9,2.5,5.9,6.8
				C190.7,22.4,188.1,26.2,184.8,26.2z M184.8,13.5c-0.9,0-3.2,0-3.2,4.1c0,3.5,1.7,6,3.2,6c1.5,0,3.2-2.4,3.2-6
				C188.1,13.5,185.7,13.5,184.8,13.5z"/>
		</g>
	</g>
	<g>
		<g>
			<path style="fill:#1E1E1E;" d="M173.1,43.2c-0.7,0-1.3-0.5-1.3-1.2c-0.8-8.9,4.1-12.6,6.8-13.3c0.1,0,0.2,0,0.3,0
				c0.6,0,1.1,0.4,1.3,1c0.2,0.7-0.2,1.4-0.9,1.6c-0.5,0.2-4.8,1.7-4.9,8.6c0,0.2,0.1,0.3,0.2,0.5c0.1,0.1,0.3,0.2,0.5,0.2h19.7
				c0.2,0,0.3-0.1,0.5-0.2c0.1-0.1,0.2-0.3,0.2-0.5c-0.1-7.1-4.7-8.6-4.9-8.6c-0.7-0.2-1.1-0.9-0.9-1.6c0.2-0.6,0.7-1,1.3-1
				c0.1,0,0.2,0,0.3,0c2.7,0.7,7.6,4.4,6.8,13.3c-0.1,0.7-0.6,1.2-1.3,1.2H173.1z"/>
		</g>
	</g>
</g>
<g>
	<g>
		<g>
			<path style="fill:#1E1E1E;" d="M26.4,39.1c-0.7,0-1.4-0.6-1.4-1.4v-4c0-6.4,3.3-10,5.7-12.6c1.5-1.6,2.3-2.6,2.3-3.5l0-3.7
				c0-2-1.1-3-3.3-3h-0.8c-2.2,0-3.3,1-3.3,3v3.7c0,0.7-0.6,1.4-1.4,1.4h-8.1c-0.7,0-1.4-0.6-1.4-1.4v-3.4c-0.2-4.1,1-7.5,3.3-10
				c2.5-2.7,6.3-4.1,10.9-4.1h0.4c4.6,0,8.4,1.4,10.9,4.1c2.4,2.5,3.5,5.9,3.3,10l0,3.4c0,5.4-2.6,7.9-4.8,10.1
				c-1.8,1.8-3.3,3.2-3.3,6v4c0,0.7-0.6,1.4-1.4,1.4H26.4z M29.8,8.1c3.7,0,6,2.2,6,5.7l0,3.7c0,2-1.4,3.6-3.1,5.4
				c-2.4,2.6-5,5.5-5,10.8v2c0,0.4,0.3,0.7,0.7,0.7h4c0.4,0,0.7-0.3,0.7-0.7v-2c0-3.9,2.1-6,4.1-7.9c2.1-2,4-3.9,4-8.2
				c0,0,0-3.4,0-3.5c0.1-3.4-0.7-6.1-2.6-8.1c-2-2.1-5.1-3.2-9-3.2h-0.4c-3.9,0-7,1.1-9,3.2c-1.9,1.9-2.7,4.7-2.6,8.1l0,1.4
				c0,0.4,0.3,0.7,0.7,0.7h4c0.4,0,0.7-0.3,0.7-0.7v-1.7c0-3.5,2.3-5.7,6-5.7H29.8z"/>
		</g>
	</g>
	<g>
		<g>
			<path style="fill:#1E1E1E;" d="M30.6,63.3c0,0-0.1,0-0.1,0c0,0-0.1,0-0.1,0H2.2c-0.7,0-1.3-0.6-1.4-1.3C0.8,60.2,0.4,44.5,5,39.9
				c0.9-1,2.1-1.5,3.3-1.5l0.6,0c0.3,0,0.6,0,0.9,0c2.6,0,5.2-0.3,7.4-3.5c0.3-0.4,0.7-0.6,1.1-0.6c0.3,0,0.5,0.1,0.8,0.2
				c0.6,0.4,0.8,1.3,0.3,1.9c-3,4.3-6.6,4.6-9.7,4.6c-0.3,0-0.5,0-0.8,0l-0.6,0c-0.3,0-0.8,0.1-1.3,0.6c-3.3,3.4-3.4,16.7-3.4,18.2
				c0,0.2,0.1,0.3,0.2,0.5c0.1,0.1,0.3,0.2,0.5,0.2h8.2c0.4,0,0.7-0.3,0.7-0.7v-8.1c0-0.7,0.6-1.4,1.4-1.4c0.7,0,1.4,0.6,1.4,1.4
				v8.1c0,0.4,0.3,0.7,0.7,0.7h13.9c0,0,0.1,0,0.1,0c0,0,0.1,0,0.1,0h14c0.4,0,0.7-0.3,0.7-0.7v-8.1c0-0.7,0.6-1.4,1.4-1.4
				c0.7,0,1.4,0.6,1.4,1.4v8.1c0,0.4,0.3,0.7,0.7,0.7h8.1c0.2,0,0.3-0.1,0.5-0.2c0.1-0.1,0.2-0.3,0.2-0.5c0-1.5-0.1-14.8-3.4-18.2
				c-0.6-0.6-1-0.6-1.3-0.6l-0.6,0c-0.2,0-0.5,0-0.7,0c-3.2,0-6.9-0.4-9.8-4.6c-0.2-0.3-0.3-0.7-0.2-1c0.1-0.4,0.3-0.7,0.6-0.9
				c0.2-0.2,0.5-0.2,0.8-0.2c0.4,0,0.9,0.2,1.1,0.6c2.2,3.2,4.7,3.5,7.4,3.5c0.3,0,0.6,0,0.9,0l0.6,0c1.2,0,2.3,0.5,3.3,1.5
				C60.4,44.5,60,60.2,60,62c0,0.7-0.6,1.3-1.4,1.3H30.6z"/>
		</g>
	</g>
	<g>
		<g>
			<path style="fill:#1E1E1E;" d="M26.5,55.2c-0.7,0-1.4-0.6-1.4-1.4v-8.1c0-0.7,0.6-1.4,1.4-1.4h8.1c0.7,0,1.4,0.6,1.4,1.4v8.1
				c0,0.7-0.6,1.4-1.4,1.4H26.5z M28.5,47.2c-0.4,0-0.7,0.3-0.7,0.7v4c0,0.4,0.3,0.7,0.7,0.7h4c0.4,0,0.7-0.3,0.7-0.7v-4
				c0-0.4-0.3-0.7-0.7-0.7H28.5z"/>
		</g>
	</g>
</g>
<g>
	<g>
		<g>
			<path style="fill:#1E1E1E;" d="M133.9,63.6c-0.8,0-1.4-0.6-1.4-1.4V58c0-0.4-0.3-0.7-0.7-0.7c-0.8,0-1.4-0.6-1.4-1.4v-4.2
				c0-0.4-0.3-0.7-0.7-0.7c-0.8,0-1.4-0.6-1.4-1.4V8.3c0-0.8,0.6-1.4,1.4-1.4c0.4,0,0.7-0.3,0.7-0.7V2c0-0.8,0.6-1.4,1.4-1.4h4.2
				c0.8,0,1.4,0.6,1.4,1.4v4.2c0,0.4,0.3,0.7,0.7,0.7c0.8,0,1.4,0.6,1.4,1.4v41.2c0,0.8-0.6,1.4-1.4,1.4c-0.4,0-0.7,0.3-0.7,0.7v4.2
				c0,0.8-0.6,1.4-1.4,1.4c-0.4,0-0.7,0.3-0.7,0.7v4.2C135.3,62.9,134.7,63.6,133.9,63.6z M131.8,9.7c-0.4,0-0.7,0.3-0.7,0.7v37
				c0,0.4,0.3,0.7,0.7,0.7h4.2c0.4,0,0.7-0.3,0.7-0.7v-37c0-0.4-0.3-0.7-0.7-0.7H131.8z"/>
		</g>
	</g>
	<g>
		<g>
			<path style="fill:#1E1E1E;" d="M83.3,20.9c-0.8,0-1.4-0.6-1.4-1.4V8.9c0-0.8,0.6-1.4,1.4-1.4h10.5c0.8,0,1.4,0.6,1.4,1.4v10.5
				c0,0.8-0.6,1.4-1.4,1.4H83.3z M85.4,10.3c-0.4,0-0.7,0.3-0.7,0.7v6.3c0,0.4,0.3,0.7,0.7,0.7h6.3c0.4,0,0.7-0.3,0.7-0.7V11
				c0-0.4-0.3-0.7-0.7-0.7H85.4z"/>
		</g>
	</g>
	<g>
		<g>
			<path style="fill:#1E1E1E;" d="M83.3,56.7c-0.8,0-1.4-0.6-1.4-1.4V44.7c0-0.8,0.6-1.4,1.4-1.4h10.5c0.8,0,1.4,0.6,1.4,1.4v10.5
				c0,0.8-0.6,1.4-1.4,1.4H83.3z M85.4,46.1c-0.4,0-0.7,0.3-0.7,0.7v6.3c0,0.4,0.3,0.7,0.7,0.7h6.3c0.4,0,0.7-0.3,0.7-0.7v-6.3
				c0-0.4-0.3-0.7-0.7-0.7H85.4z"/>
		</g>
	</g>
	<g>
		<g>
			<path style="fill:#1E1E1E;" d="M74.9,63.6c-0.8,0-1.4-0.6-1.4-1.4V2c0-0.8,0.6-1.4,1.4-1.4h46.3c0.8,0,1.4,0.6,1.4,1.4v60.2
				c0,0.8-0.6,1.4-1.4,1.4H74.9z M77,3.4c-0.4,0-0.7,0.3-0.7,0.7v56c0,0.4,0.3,0.7,0.7,0.7h42.1c0.4,0,0.7-0.3,0.7-0.7v-56
				c0-0.4-0.3-0.7-0.7-0.7H77z"/>
		</g>
	</g>
	<g>
		<g>
			<path style="fill:#1E1E1E;" d="M102.3,20.9c-0.8,0-1.4-0.6-1.4-1.4c0-0.8,0.6-1.4,1.4-1.4h10.5c0.8,0,1.4,0.6,1.4,1.4
				c0,0.8-0.6,1.4-1.4,1.4H102.3z"/>
		</g>
	</g>
	<g>
		<g>
			<path style="fill:#1E1E1E;" d="M102.3,37.7c-0.8,0-1.4-0.6-1.4-1.4c0-0.8,0.6-1.4,1.4-1.4h10.5c0.8,0,1.4,0.6,1.4,1.4
				c0,0.8-0.6,1.4-1.4,1.4H102.3z"/>
		</g>
	</g>
	<g>
		<g>
			<path style="fill:#1E1E1E;" d="M102.3,56.7c-0.8,0-1.4-0.6-1.4-1.4c0-0.8,0.6-1.4,1.4-1.4h10.5c0.8,0,1.4,0.6,1.4,1.4
				c0,0.8-0.6,1.4-1.4,1.4H102.3z"/>
		</g>
	</g>
	<g>
		<g>
			<path style="fill:#1E1E1E;" d="M87.5,37.7c-0.1,0-0.3,0-0.5-0.1c0,0,0,0,0,0c0,0-0.1,0-0.1-0.1c0,0-0.1,0-0.1-0.1c0,0,0,0-0.1,0
				c0,0-0.1-0.1-0.1-0.1c0,0-0.1-0.1-0.1-0.1l-4.2-4.2c-0.6-0.6-0.6-1.4,0-2c0.3-0.3,0.6-0.4,1-0.4c0.4,0,0.7,0.1,1,0.4l2.5,2.5
				c0.1,0.1,0.3,0.2,0.5,0.2c0,0,0,0,0,0c0.2,0,0.4-0.1,0.5-0.3l4.9-6.5c0.3-0.4,0.7-0.6,1.1-0.6c0.3,0,0.6,0.1,0.8,0.3
				c0.3,0.2,0.5,0.6,0.6,0.9c0.1,0.4,0,0.7-0.3,1l-6.3,8.4c0,0-0.1,0.1-0.1,0.1c0,0-0.1,0.1-0.1,0.1c0,0-0.1,0-0.1,0.1
				c0,0-0.1,0.1-0.1,0.1c0,0-0.1,0.1-0.1,0.1c0,0,0,0,0,0C87.9,37.7,87.7,37.7,87.5,37.7L87.5,37.7z"/>
		</g>
	</g>
</g>
</svg>
